<svg id="Layer_1" data-name="Layer 1" xmlns="http://www.w3.org/2000/svg" viewBox="0 0 478 96.45"><defs><style>.cls-1{fill:#5c5d5c;}.cls-2{fill:#f5d222;}.cls-3{fill:#dfb62c;}</style></defs><title>fieldmargin_logo</title><g id="Page-1"><g id="Logo"><g id="NormalLogo"><path id="Fill-1" class="cls-1" d="M195.52,34.1l-.61.09-6.14,1s-.46,6-.46,15.53V92.55h7.22V34.1h0" transform="translate(-0.96 -10.8)"/><path id="Fill-2" class="cls-1" d="M238.76,34.25l-5.85,1s-.24,3.38-.39,9.08V55.12l-.07,0a27.4,27.4,0,0,0-9.65-1.64c-9.4,0-17.53,6.76-17.53,20.85,0,13,6.9,19,15.26,19,5.29,0,9-2.52,11.91-5.68.22-.24.45-.45.65-.69l.9,5.61h5.79V34.1l-1,.14Zm-6.25,45.9-.07.09c-3,4.07-6.45,6.7-10.87,6.7-5.17,0-9-4.45-9-13,0-9.51,4.38-14.44,10.45-14.44a18.31,18.31,0,0,1,9.4,2.13l.07,0V80.15Z" transform="translate(-0.96 -10.8)"/><path id="Fill-3" class="cls-1" d="M116.92,41.23c-3.34,0-5.35,1.37-5.35,4.92v7.79h7.79l.87,6h-8.66v32.6h-7.08V59.95H98.66v-6h5.82V45.43c0-7.67,5.11-10.6,12-10.6,1.47,0,2.36.16,3.09.16l1.06,6.57a17.81,17.81,0,0,0-3.73-.34" transform="translate(-0.96 -10.8)"/><path id="Fill-4" class="cls-1" d="M131.76,46.14a4.57,4.57,0,0,1-4.63-4.52A4.65,4.65,0,0,1,131.76,37a4.59,4.59,0,0,1,4.54,4.61,4.5,4.5,0,0,1-4.54,4.52Zm-3.64,46.4h7.23V53.94h-7.23Z" transform="translate(-0.96 -10.8)"/><path id="Fill-5" class="cls-1" d="M178.56,74H152.28c.26,9,4.56,13.21,11.3,13.21,5.59,0,9.63-2.15,13.84-5.5l1.06,6.5A24.15,24.15,0,0,1,163,93.31c-10,0-17.91-6-17.91-20.23,0-12.35,7.3-20,17-20,11.28,0,16.46,8.66,16.46,19.33V74ZM162,58.78c-4.48,0-8.29,3.17-9.43,9.81h18.66c-.9-6.28-3.66-9.81-9.23-9.81Z" transform="translate(-0.96 -10.8)"/><path id="Fill-6" class="cls-1" d="M298.81,92.55V66.25c0-4-1.48-6.67-5.66-6.67-3.84,0-7.45,2.5-11,6.23V92.55h-7.25V66.25c0-4-1.42-6.67-5.63-6.67-3.84,0-7.46,2.5-11,6.23V92.55h-7.24V53.93h5.77l.9,5.59c3.65-3.35,8-6.41,13.46-6.41,5.68,0,8.74,2.4,10.22,6.41,3.49-3.35,8.19-6.41,13.62-6.41,7.39,0,10.93,4.36,10.93,11.34V92.55h-7.2" transform="translate(-0.96 -10.8)"/><path id="Fill-7" class="cls-1" d="M340.69,92.55l-.8-5.2a18.19,18.19,0,0,1-13.63,6c-7,0-11.35-4.16-11.35-10.76,0-9.6,8.27-13.4,24.42-15.1V65.81c0-4.86-2.93-6.55-7.4-6.55a33.06,33.06,0,0,0-13.39,3.35l-1-6.25a37.48,37.48,0,0,1,15-3.24c9.38,0,13.94,3.8,13.94,12.37V92.55Zm-1.36-19.6C325,74.31,322,78.17,322,82.14c0,3.2,2.09,5.2,5.74,5.2,4.21,0,8.27-2.1,11.54-5.4v-9Z" transform="translate(-0.96 -10.8)"/><path id="Fill-8" class="cls-1" d="M365,69.69V92.55h-7.24V53.93h5.76l1.23,7.85c2.75-4.36,7.2-8.32,13.54-8.66l1.14,6.83A17.83,17.83,0,0,0,365,69.69" transform="translate(-0.96 -10.8)"/><path id="Fill-9" class="cls-1" d="M419.73,53.35l1,6.46-7.37.75a11.55,11.55,0,0,1,1.52,6c0,8.22-7,13.27-14.83,13.27a19.23,19.23,0,0,1-2.91-.23c-1.14.73-2,1.61-2,2.34,0,1.33,1.4,1.68,8.19,2.9l2.77.5c8.19,1.48,13.31,4,13.31,10,0,8.12-8.84,11.9-18.9,11.9s-18.09-3.17-18.09-9.94c0-4,2.74-7,8.2-10a4.9,4.9,0,0,1-2.43-4.07c0-1.84,1.45-3.67,4-5.22a12.55,12.55,0,0,1-7.21-11.49c0-8.35,7-13.44,14.84-13.44a15.77,15.77,0,0,1,10,3.24l9.82-3ZM389.4,96.72c0,3.09,4,5.36,11.53,5.36s11.74-2.6,11.74-5.79c0-2.37-1.78-4-7.31-5l-4.61-.78c-2.09-.41-3.23-.68-4.79-1-4.53,2.25-6.56,4.54-6.56,7.17Zm10.54-38.34c-4.86,0-7.85,3.7-7.85,8.4a7.57,7.57,0,0,0,7.85,7.94c4.94,0,8-3.63,8-8.24a7.79,7.79,0,0,0-8-8.1Z" transform="translate(-0.96 -10.8)"/><path id="Fill-10" class="cls-1" d="M431.92,46.14a4.58,4.58,0,0,1-4.64-4.52A4.67,4.67,0,0,1,431.92,37a4.59,4.59,0,0,1,4.54,4.61,4.5,4.5,0,0,1-4.54,4.52Zm-3.65,46.4h7.22V53.94h-7.22Z" transform="translate(-0.96 -10.8)"/><path id="Fill-11" class="cls-1" d="M471.72,92.55V66.25c0-4-1.71-6.67-5.89-6.67-3.82,0-7.71,2.5-11.2,6.23V92.55H447.4V53.93h5.76l.9,5.59c3.65-3.35,8.17-6.41,13.72-6.41,7.32,0,11.19,4.36,11.19,11.34V92.55h-7.24" transform="translate(-0.96 -10.8)"/><path id="Fill-12" class="cls-2" d="M17.24,93V35.52c0-14.12.69-23.08.69-23.08L28,10.8s-.36,10.6-.36,24.72V93H17.24" transform="translate(-0.96 -10.8)"/><path id="Fill-13" class="cls-2" d="M49.8,93V55.24c0-14.12.69-34.37.69-34.37l10-1.64s-.35,21.9-.35,36V93H49.8" transform="translate(-0.96 -10.8)"/><path id="Fill-14" class="cls-3" d="M1,93V55.29C1,41.17,1.65,35,1.65,35l10-1.66s-.36,7.79-.36,21.9V93H1" transform="translate(-0.96 -10.8)"/><path id="Fill-15" class="cls-3" d="M33.52,93V49.64c0-14.12.7-23.08.7-23.08l10-1.64s-.35,10.6-.35,24.72V93H33.52" transform="translate(-0.96 -10.8)"/><path id="Fill-16" class="cls-3" d="M66.08,93V58.06c0-14.12.69-23.08.69-23.08l10-1.64s-.35,10.6-.35,24.72V93H66.08" transform="translate(-0.96 -10.8)"/></g></g></g></svg>